<svg width="1365" height="192" viewBox="0 0 1365 192" fill="none" xmlns="http://www.w3.org/2000/svg">
<path fill-rule="evenodd" clip-rule="evenodd" d="M0 39.2828L32.9875 30.7985C64.8375 22.3142 129.675 5.34565 194.513 1.10351C260.488 -3.13864 325.325 5.34565 390.163 18.0721C455 30.7985 519.838 47.7671 584.675 60.4935C649.513 73.22 715.488 81.7042 780.325 68.9778C845.163 56.2514 910 22.3142 974.838 30.7985C1039.68 39.2828 1104.51 90.1885 1170.49 98.6728C1235.33 107.157 1300.16 73.22 1332.01 56.2514L1365 39.2828V192H1332.01C1300.16 192 1235.33 192 1170.49 192C1104.51 192 1039.68 192 974.838 192C910 192 845.163 192 780.325 192C715.488 192 649.513 192 584.675 192C519.838 192 455 192 390.163 192C325.325 192 260.488 192 194.513 192C129.675 192 64.8375 192 32.9875 192H0V39.2828Z" fill="#4B4CAD"/>
</svg>
