<svg width="281" height="281" viewBox="0 0 281 281" fill="none" xmlns="http://www.w3.org/2000/svg">
<path fill-rule="evenodd" clip-rule="evenodd" d="M140.5 260.9C206.995 260.9 260.9 206.995 260.9 140.5C260.9 74.0049 206.995 20.1 140.5 20.1C74.0049 20.1 20.1 74.0049 20.1 140.5C20.1 206.995 74.0049 260.9 140.5 260.9ZM140.5 280.5C217.82 280.5 280.5 217.82 280.5 140.5C280.5 63.1801 217.82 0.5 140.5 0.5C63.1801 0.5 0.5 63.1801 0.5 140.5C0.5 217.82 63.1801 280.5 140.5 280.5Z" fill="#6A6BF5"/>
<path fill-rule="evenodd" clip-rule="evenodd" d="M141.9 260.9C181.333 260.9 213.3 228.933 213.3 189.5C213.3 150.067 181.333 118.1 141.9 118.1C102.467 118.1 70.5 150.067 70.5 189.5C70.5 228.933 102.467 260.9 141.9 260.9ZM141.9 280.5C192.158 280.5 232.9 239.758 232.9 189.5C232.9 139.242 192.158 98.5 141.9 98.5C91.6421 98.5 50.9 139.242 50.9 189.5C50.9 239.758 91.6421 280.5 141.9 280.5Z" fill="#6A6BF5"/>
<path fill-rule="evenodd" clip-rule="evenodd" d="M141.9 162.9C181.333 162.9 213.3 130.933 213.3 91.5C213.3 52.0669 181.333 20.1 141.9 20.1C102.467 20.1 70.5 52.0669 70.5 91.5C70.5 130.933 102.467 162.9 141.9 162.9ZM141.9 182.5C192.158 182.5 232.9 141.758 232.9 91.5C232.9 41.2421 192.158 0.5 141.9 0.5C91.6421 0.5 50.9 41.2421 50.9 91.5C50.9 141.758 91.6421 182.5 141.9 182.5Z" fill="#6A6BF5"/>
</svg>
