<svg width="75" height="42" viewBox="0 0 75 42" fill="none" xmlns="http://www.w3.org/2000/svg">
<path fill-rule="evenodd" clip-rule="evenodd" d="M30.6654 2.31339C39.8579 1.00391 50.4958 -2.50554 57.2283 2.99273C64.3961 8.84657 64.0583 18.9361 60.8164 26.9371C57.9466 34.0197 50.1778 38.4869 41.8654 40.9082C34.8057 42.9646 27.0209 42.072 20.7663 38.6032C15.3619 35.6059 13.8416 29.9824 12.4745 24.608C11.1342 19.3391 9.68924 13.6754 13.2997 9.25039C17.1417 4.5417 24.0326 3.25823 30.6654 2.31339Z" fill="#6A6BF5" fill-opacity="0.15"/>
<path d="M55.3888 7.08126L58.5381 14.4538L66.57 15.1717C66.9823 15.2209 67.343 15.4282 67.5936 15.7257C67.8454 16.0255 67.986 16.4167 67.9602 16.8313L67.952 16.9308C67.9286 17.1182 67.8735 17.2951 67.7927 17.4555L67.7553 17.5223C67.6862 17.6429 67.6007 17.7542 67.5034 17.8514L61.3805 23.2025L63.1678 31.0224C63.2661 31.4464 63.1806 31.8739 62.9651 32.2159C62.7508 32.5555 62.403 32.8178 61.9778 32.9139C61.7682 32.9607 61.5539 32.9642 61.3501 32.9279C61.1522 32.8928 60.9636 32.819 60.7949 32.7136L53.9342 28.6133L50.7322 30.527L50.3071 28.6988L53.4704 26.8074C53.6094 26.7229 53.7688 26.6779 53.9314 26.6773C54.094 26.6767 54.2537 26.7204 54.3933 26.8039L61.3138 30.9405L59.5172 23.0819C59.4481 22.7703 59.5441 22.433 59.8006 22.2082L65.8732 16.9063L57.8975 16.1895C57.7266 16.1847 57.5608 16.1309 57.4196 16.0346C57.2784 15.9382 57.1678 15.8034 57.1011 15.6461L53.9342 8.23252L51.8331 13.1538L49.9569 12.9852L52.4808 7.07657C52.6506 6.67603 52.968 6.38206 53.3428 6.23098C53.7187 6.07873 54.152 6.0717 54.5538 6.24269L54.6229 6.27549C54.7868 6.35396 54.932 6.45936 55.0515 6.57999C55.1956 6.71936 55.308 6.8927 55.3888 7.08126ZM38.7886 5.53765L43.0786 15.584L53.9611 16.5608C54.4413 16.6017 54.7974 17.0245 54.7552 17.5047C54.7353 17.739 54.624 17.9427 54.4601 18.0856L46.2279 25.2743L48.6627 35.9308C48.7717 36.4005 48.4765 36.8701 48.0057 36.9779C47.7656 37.0329 47.5244 36.9825 47.3323 36.8572L37.9816 31.266L28.6005 36.8748C28.1871 37.1219 27.6518 36.9872 27.4036 36.5726C27.2872 36.3802 27.2507 36.1499 27.3017 35.9308L27.3005 35.9297L29.7365 25.2743L21.5032 18.0856C21.4167 18.0102 21.3461 17.9185 21.2952 17.8157C21.2442 17.7129 21.2141 17.6011 21.2065 17.4866C21.1989 17.3721 21.2139 17.2573 21.2508 17.1487C21.2876 17.0401 21.3455 16.9398 21.4212 16.8535C21.4979 16.7659 21.5915 16.6945 21.6963 16.6437C21.8011 16.5928 21.915 16.5634 22.0314 16.5572L32.8847 15.584L37.177 5.53296C37.3667 5.08791 37.8797 4.88062 38.3236 5.07035C38.5426 5.16287 38.7042 5.33503 38.7886 5.53765ZM22.029 8.23252L18.8622 15.6461C18.7955 15.8035 18.685 15.9384 18.5438 16.0348C18.4026 16.1311 18.2366 16.1848 18.0658 16.1895L10.0901 16.9063L16.1626 22.2082C16.2843 22.3147 16.3748 22.4521 16.4247 22.6059C16.4746 22.7598 16.482 22.9242 16.446 23.0819L14.6506 30.9405L21.5699 26.8039C21.8639 26.6282 22.2176 26.6411 22.4928 26.8074L25.6608 28.7012L25.2427 30.5341L22.029 28.6133L15.1683 32.7148C14.9996 32.819 14.8111 32.8928 14.6131 32.9279C14.4094 32.9642 14.195 32.9607 13.9866 32.9139C13.5591 32.8178 13.2124 32.5555 12.9981 32.2159C12.7838 31.8727 12.6983 31.4464 12.7955 31.0224L14.5827 23.2025L8.45978 17.8514C8.36257 17.7542 8.27708 17.6429 8.20798 17.5223L8.17167 17.4555C8.08969 17.2951 8.03464 17.1182 8.01122 16.9308L8.00302 16.8348C7.97725 16.4179 8.1178 16.0267 8.3696 15.7257C8.62023 15.4271 8.98095 15.2209 9.39438 15.1717L17.4251 14.4538L20.5744 7.08126C20.6552 6.8927 20.7688 6.71936 20.9094 6.57882C21.0312 6.45936 21.1752 6.35513 21.3392 6.27666L21.4106 6.24269C21.81 6.0717 22.2445 6.07873 22.6205 6.22981C22.9952 6.38206 23.3126 6.67603 23.4825 7.07657L26.0052 12.9828L24.1313 13.1515L22.029 8.23252Z" fill="#6A6BF5"/>
</svg>
