<svg width="265" height="268" viewBox="0 0 265 268" fill="none" xmlns="http://www.w3.org/2000/svg">
<g clip-path="url(#clip0_509_3295)">
<path opacity="0.4" fill-rule="evenodd" clip-rule="evenodd" d="M213.251 240.166C213.251 240.166 237.895 225.082 232.613 221.757C220.581 214.181 202.858 206.068 202.858 206.068L188.995 222.78L213.251 240.166Z" fill="#4B4CAD"/>
<path opacity="0.4" fill-rule="evenodd" clip-rule="evenodd" d="M250.616 74.965C257.811 79.106 260.268 95.8079 252.876 103.252L220.396 87.6056C220.396 87.6056 218.194 75.7264 229.253 72.7933C240.308 69.86 243.418 70.8236 250.616 74.965Z" fill="#4B4CAD"/>
<path fill-rule="evenodd" clip-rule="evenodd" d="M250.621 74.9637L156.366 20.5456C147.18 19.8562 142.415 29.0939 140.447 39.0152C130.22 90.5516 141.272 150.556 124.615 174.948L218.87 229.366C237.004 196.104 225.015 139.384 235.88 89.0724C237.666 80.8071 241.418 73.3504 250.621 74.9637Z" fill="#E3E3E8"/>
<path opacity="0.4" fill-rule="evenodd" clip-rule="evenodd" d="M198.645 236.531C163.775 220.279 131.192 201.825 100.308 181.731C105.613 184.123 112.047 184.846 120.308 182.87L193.728 221.511L198.645 236.531Z" fill="#4B4CAD"/>
<path fill-rule="evenodd" clip-rule="evenodd" d="M109.613 183.86C114.748 183.508 120.221 180.81 124.611 174.948L218.867 229.367C208.753 242.867 187.664 238.266 192.864 221.943L109.613 183.86Z" fill="#E3E3E8"/>
<path opacity="0.4" fill-rule="evenodd" clip-rule="evenodd" d="M109.613 183.86C102.925 184.32 96.817 180.796 94.4375 175.099L109.613 183.86Z" fill="#4B4CAD"/>
<path fill-rule="evenodd" clip-rule="evenodd" d="M157.818 104.212C153.526 101.897 149.235 99.5809 144.943 97.2648C144.79 108.555 144.847 119.847 144.479 131.137C148.735 133.486 152.997 135.835 157.257 138.182C157.632 126.86 157.615 115.535 157.818 104.212Z" fill="#3B3CF2"/>
<path fill-rule="evenodd" clip-rule="evenodd" d="M157.819 104.212C153.527 101.896 149.236 99.5801 144.944 97.2643C144.9 100.561 144.872 103.857 144.848 107.154C149.122 109.482 153.401 111.81 157.68 114.138C157.717 110.829 157.759 107.52 157.819 104.212Z" fill="#6A6BF5"/>
<path fill-rule="evenodd" clip-rule="evenodd" d="M177.347 94.8443C173.014 92.5419 168.683 90.2394 164.349 87.9366C163.344 105.737 163.655 123.569 163.064 141.38C167.349 143.741 171.635 146.102 175.922 148.462C176.51 130.591 176.265 112.701 177.347 94.8443Z" fill="#3B3CF2"/>
<path fill-rule="evenodd" clip-rule="evenodd" d="M177.347 94.8434C173.014 92.5409 168.683 90.2383 164.349 87.9357C163.952 94.9668 163.754 101.999 163.628 109.032C167.932 111.357 172.238 113.682 176.545 116.007C176.693 108.952 176.92 101.897 177.347 94.8434Z" fill="#6A6BF5"/>
<path fill-rule="evenodd" clip-rule="evenodd" d="M195.986 108.842C191.657 106.536 187.331 104.229 183.003 101.924C182.136 118.496 182.286 135.09 181.745 151.67C186.034 154.032 190.323 156.393 194.61 158.755C195.146 142.119 195.055 125.469 195.986 108.842Z" fill="#3B3CF2"/>
<path fill-rule="evenodd" clip-rule="evenodd" d="M195.987 108.841C191.658 106.535 187.332 104.229 183.004 101.923C182.571 110.199 182.383 118.477 182.245 126.754C186.544 129.09 190.845 131.427 195.144 133.763C195.305 125.455 195.522 117.147 195.987 108.841Z" fill="#6A6BF5"/>
<path fill-rule="evenodd" clip-rule="evenodd" d="M214.598 112.056C210.267 109.758 205.938 107.46 201.61 105.161C200.206 123.941 200.36 142.777 199.757 161.587C204.026 163.939 208.293 166.291 212.562 168.645C213.172 149.779 213.103 130.886 214.598 112.056Z" fill="#3B3CF2"/>
<path fill-rule="evenodd" clip-rule="evenodd" d="M214.599 112.057C210.27 109.758 205.939 107.46 201.61 105.161C201.198 110.681 200.916 116.2 200.711 121.72C205.017 124.032 209.321 126.343 213.625 128.655C213.852 123.122 214.159 117.589 214.599 112.057Z" fill="#6A6BF5"/>
<path fill-rule="evenodd" clip-rule="evenodd" d="M204.269 86.3473C204.453 85.0539 204.123 83.6936 203.332 82.4939C202.947 81.9121 202.426 81.3213 201.65 80.9102C188.94 74.1851 176.226 67.4602 163.515 60.7349C162.822 60.3688 161.912 60.2298 161.162 60.6205C160.975 60.7172 160.818 60.834 160.683 60.9593C160.095 61.5053 159.885 62.1986 159.799 62.8444C159.63 64.1517 159.997 65.5217 160.818 66.7275C161.211 67.3093 161.739 67.901 162.518 68.3138C175.203 75.0165 187.887 81.7186 200.572 88.4211C201.257 88.7825 202.16 88.9292 202.902 88.543C203.089 88.4477 203.243 88.3328 203.377 88.2096C203.962 87.6704 204.175 86.9854 204.269 86.3473Z" fill="#4B4CAD"/>
<path fill-rule="evenodd" clip-rule="evenodd" d="M171.553 158.095C171.608 157.186 171.269 156.246 170.668 155.427C170.36 155.007 169.965 154.59 169.414 154.286C160.662 149.47 151.913 144.652 143.169 139.83C143.02 139.748 142.859 139.675 142.681 139.622C142.114 139.452 141.563 139.585 141.227 139.926C140.877 140.282 140.776 140.731 140.75 141.144C140.689 142.051 141.004 142.989 141.595 143.81C141.894 144.227 142.281 144.642 142.827 144.942C151.576 149.757 160.334 154.567 169.091 159.376C169.242 159.458 169.406 159.532 169.584 159.586C170.177 159.766 170.758 159.628 171.102 159.266C171.428 158.921 171.526 158.493 171.553 158.095Z" fill="#9B9BF8"/>
<path fill-rule="evenodd" clip-rule="evenodd" d="M208.699 178.524C208.749 177.618 208.41 176.683 207.809 175.868C207.501 175.45 207.106 175.034 206.558 174.732C197.779 169.896 188.998 165.064 180.214 160.231C180.066 160.148 179.902 160.074 179.721 160.02C179.131 159.841 178.556 159.983 178.219 160.346C177.898 160.693 177.803 161.12 177.777 161.518C177.721 162.424 178.052 163.36 178.651 164.177C178.958 164.595 179.353 165.011 179.904 165.313C188.693 170.139 197.485 174.965 206.272 179.794C206.42 179.876 206.584 179.949 206.762 180.003C207.348 180.182 207.922 180.047 208.262 179.687C208.582 179.344 208.678 178.918 208.699 178.524Z" fill="#9B9BF8"/>
<path fill-rule="evenodd" clip-rule="evenodd" d="M170.925 166.188C171.007 165.291 170.686 164.361 170.098 163.551C169.793 163.134 169.401 162.72 168.853 162.419C160.088 157.618 151.328 152.815 142.57 148.007C142.422 147.926 142.26 147.853 142.083 147.8C141.508 147.629 140.943 147.76 140.593 148.098C140.23 148.448 140.109 148.893 140.069 149.306C139.979 150.203 140.27 151.137 140.845 151.953C141.137 152.367 141.518 152.78 142.061 153.077C150.829 157.867 159.605 162.653 168.381 167.437C168.877 167.707 169.568 167.865 170.122 167.568C170.244 167.503 170.347 167.424 170.432 167.339C170.774 167.004 170.888 166.582 170.925 166.188Z" fill="#9B9BF8"/>
<path fill-rule="evenodd" clip-rule="evenodd" d="M208.154 186.539C208.226 185.652 207.897 184.732 207.309 183.933C207.004 183.518 206.612 183.107 206.066 182.808C197.272 177.986 188.475 173.167 179.678 168.348C179.526 168.265 179.362 168.191 179.182 168.137C178.589 167.957 178.003 168.089 177.648 168.447C177.314 168.784 177.203 169.205 177.168 169.599C177.086 170.49 177.399 171.415 177.984 172.22C178.286 172.636 178.679 173.047 179.227 173.346C188.037 178.148 196.85 182.951 205.658 187.757C206.146 188.022 206.829 188.188 207.378 187.896C207.497 187.833 207.598 187.755 207.683 187.672C208.014 187.342 208.122 186.926 208.154 186.539Z" fill="#9B9BF8"/>
<path fill-rule="evenodd" clip-rule="evenodd" d="M170.042 174.157C170.081 173.849 170.066 173.539 170.01 173.232C169.97 173.007 169.907 172.783 169.824 172.563C169.538 171.803 169.003 170.953 168.049 170.435C159.263 165.665 150.479 160.893 141.7 156.117C141.552 156.035 141.388 155.963 141.207 155.911C140.624 155.74 140.047 155.871 139.676 156.206C139.297 156.549 139.154 156.991 139.096 157.404C138.968 158.3 139.236 159.242 139.808 160.059C140.089 160.461 140.463 160.859 140.99 161.144C149.787 165.892 158.592 170.634 167.397 175.375C167.906 175.648 168.603 175.798 169.175 175.512C169.3 175.449 169.408 175.371 169.501 175.288C169.856 174.962 169.991 174.547 170.042 174.157Z" fill="#9B9BF8"/>
<path fill-rule="evenodd" clip-rule="evenodd" d="M207.39 194.358C207.425 194.057 207.404 193.754 207.345 193.454C207.3 193.233 207.234 193.014 207.149 192.798C206.855 192.046 206.315 191.212 205.369 190.699C196.55 185.906 187.727 181.117 178.906 176.328C178.405 176.057 177.713 175.9 177.149 176.189C177.027 176.253 176.921 176.33 176.831 176.413C176.484 176.74 176.354 177.154 176.304 177.542C176.267 177.826 176.277 178.112 176.322 178.395C176.357 178.619 176.415 178.841 176.492 179.06C176.767 179.837 177.303 180.708 178.28 181.234C187.125 185.995 195.97 190.756 204.809 195.521C205.321 195.796 206.034 195.955 206.603 195.65C206.723 195.586 206.826 195.508 206.911 195.424C207.229 195.113 207.348 194.725 207.39 194.358Z" fill="#9B9BF8"/>
<path opacity="0.4" d="M242.022 245.999C246.917 245.999 250.885 244.307 250.885 242.219C250.885 240.132 246.917 238.44 242.022 238.44C237.127 238.44 233.159 240.132 233.159 242.219C233.159 244.307 237.127 245.999 242.022 245.999Z" fill="#4B4CAD"/>
<path opacity="0.4" d="M248.462 252.656C255.065 252.656 260.418 250.55 260.418 247.953C260.418 245.356 255.065 243.25 248.462 243.25C241.858 243.25 236.505 245.356 236.505 247.953C236.505 250.55 241.858 252.656 248.462 252.656Z" fill="#4B4CAD"/>
<path fill-rule="evenodd" clip-rule="evenodd" d="M234.515 235.726C232.426 231.074 225.229 220.32 229.962 214.487C234.34 209.092 239.857 216.723 240.924 222.88C240.924 222.88 237.956 196.484 246.779 196.167C255.601 195.85 252.141 212.888 250.398 219.96C250.398 219.96 258.404 206.038 263.609 211.197C268.813 216.357 250.819 238.008 250.819 238.008C249.601 240.074 246.306 242.454 242.49 242.399C239.333 242.353 235.938 238.896 234.515 235.726Z" fill="#6A6BF5"/>
<path fill-rule="evenodd" clip-rule="evenodd" d="M247.016 202.532C247.038 202.284 247.254 202.099 247.498 202.12C247.742 202.141 247.922 202.359 247.901 202.607C247.901 202.607 245.38 231.424 242.369 242.594C242.305 242.835 242.06 242.977 241.824 242.913C241.588 242.848 241.449 242.6 241.513 242.359C244.511 231.235 247.016 202.532 247.016 202.532Z" fill="#E3E3E8"/>
<path fill-rule="evenodd" clip-rule="evenodd" d="M235.025 221.829C234.979 221.584 235.139 221.346 235.383 221.298C235.627 221.25 235.863 221.41 235.91 221.655C235.91 221.655 236.706 225.843 238.554 229.782C239.757 232.347 241.398 234.82 243.588 235.886C243.812 235.995 243.904 236.266 243.795 236.491C243.686 236.716 243.415 236.81 243.192 236.701C240.837 235.554 239.033 232.929 237.739 230.171C235.842 226.127 235.025 221.829 235.025 221.829ZM244.677 230.693C244.444 230.78 244.185 230.661 244.099 230.427C244.013 230.193 244.133 229.932 244.367 229.845C244.367 229.845 254.072 226.225 257.949 218.633C258.063 218.41 258.334 218.321 258.556 218.434C258.777 218.548 258.864 218.82 258.75 219.043C254.729 226.918 244.677 230.693 244.677 230.693Z" fill="#E3E3E8"/>
<path fill-rule="evenodd" clip-rule="evenodd" d="M249.625 235.041C254.969 234.981 253.496 238.67 256.858 240.844C259.938 242.835 259.869 247.189 254.932 248.087C249.996 248.986 245.808 248.844 242.393 247.811C236.234 245.947 237.461 241.557 241.4 240.274C244.66 239.214 245.66 235.085 249.625 235.041Z" fill="#070764"/>
<path opacity="0.4" d="M251.024 240.116C251.705 240.116 252.257 239.584 252.257 238.928C252.257 238.272 251.705 237.74 251.024 237.74C250.343 237.74 249.791 238.272 249.791 238.928C249.791 239.584 250.343 240.116 251.024 240.116Z" fill="#4B4CAD"/>
<path opacity="0.4" d="M252.879 241.527C253.222 241.527 253.499 241.272 253.499 240.958C253.499 240.644 253.222 240.39 252.879 240.39C252.536 240.39 252.258 240.644 252.258 240.958C252.258 241.272 252.536 241.527 252.879 241.527Z" fill="#4B4CAD"/>
<path fill-rule="evenodd" clip-rule="evenodd" d="M162.881 87.2872L162.882 87.2863L172.018 92.659L172.019 92.6719C176.764 95.7212 179.97 101.606 180.568 109.694C181.803 126.431 171.385 146.303 157.32 154.043C150.291 157.912 143.671 158.022 138.655 155.074L129.874 149.911C134.888 152.852 141.503 152.74 148.528 148.873C162.593 141.133 173.011 121.262 171.777 104.525C171.166 96.2423 167.815 90.2698 162.881 87.2872Z" fill="#070764"/>
<path fill-rule="evenodd" clip-rule="evenodd" d="M149.395 152.689C149.395 152.689 149.87 194.726 150.046 214.109C150.114 221.703 172.776 216.701 170.919 207.338L158.512 151.148C158.098 149.621 150.645 147.56 149.395 152.689Z" fill="#4B4CAD"/>
<path fill-rule="evenodd" clip-rule="evenodd" d="M153.568 205.915L157.64 203.469C157.64 203.469 155.48 187.484 153.947 186.798C152.416 186.111 153.568 205.915 153.568 205.915Z" fill="#E3E3E8"/>
<path fill-rule="evenodd" clip-rule="evenodd" d="M148.935 213.995C148.806 210.355 152.428 207.798 158.536 206.097C164.646 204.396 169.211 205.979 170.055 208.355C170.897 210.731 169.336 215.297 160.858 217.028C152.377 218.758 149.061 217.511 148.935 213.995ZM162.132 89.6985C162.132 89.6985 138.244 81.9468 128.033 112.329C120.828 133.77 131.9 145.814 131.9 145.814C131.9 145.814 125.867 134.026 136.004 113.243C146.138 92.4605 162.132 89.6985 162.132 89.6985Z" fill="#070764"/>
<path opacity="0.3" fill-rule="evenodd" clip-rule="evenodd" d="M130.951 113.75C135.743 101.45 150.992 86.3913 159.187 89.2762C167.386 92.1614 173.321 110.142 166.048 127.428C158.777 144.714 139.789 152.428 133.47 148.145C127.15 143.862 122.572 135.247 130.951 113.75Z" fill="#6A6BF5"/>
<path fill-rule="evenodd" clip-rule="evenodd" d="M129.456 149.737C124.415 146.784 120.987 140.761 120.369 132.371C119.131 115.607 129.572 95.7033 143.672 87.9511C150.795 84.0354 157.498 83.9643 162.545 87.0135C167.49 90.0009 170.85 95.9829 171.462 104.278C172.699 121.042 162.256 140.945 148.156 148.698C141.114 152.57 134.483 152.683 129.456 149.737ZM124.649 130.016C125.678 143.97 136.045 150.06 147.782 143.607C159.518 137.154 168.21 120.586 167.178 106.632C166.149 92.6786 155.785 86.589 144.049 93.0421C132.312 99.4951 123.62 116.063 124.649 130.016Z" fill="#4B4CAD"/>
<path opacity="0.4" fill-rule="evenodd" clip-rule="evenodd" d="M68.4371 245.648C80.4842 238.087 95.7711 239.854 109.987 244.484C120.874 248.03 138.854 240.862 141.11 245.837C147.981 260.985 113.298 257.545 98.4241 254.234C83.5498 250.923 57.4716 252.527 68.4371 245.648Z" fill="#4B4CAD"/>
<path fill-rule="evenodd" clip-rule="evenodd" d="M120.111 239.051C120.111 239.051 133.48 241.385 139.254 240.985C145.027 240.585 145.763 246.573 138.217 249.414C130.67 252.256 121.666 252.959 119.821 250.221C117.977 247.483 120.111 239.051 120.111 239.051Z" fill="#070764"/>
<path fill-rule="evenodd" clip-rule="evenodd" d="M121.474 177.73C121.474 177.73 134.124 197.219 135.37 209.539C136.599 221.698 136.885 232.073 136.398 241.85C136.398 241.85 126.887 249.804 114.059 243.413L114.721 211.035C114.721 211.035 106.341 189.774 102.35 183.468C102.35 183.468 106.191 176.103 121.474 177.73Z" fill="#4B4CAD"/>
<mask id="mask0_509_3295" style="mask-type:luminance" maskUnits="userSpaceOnUse" x="102" y="177" width="35" height="69">
<path d="M121.173 177.691C121.173 177.691 133.84 197.296 135.18 209.641C136.502 221.823 136.876 232.212 136.482 241.998C136.482 241.998 127.158 249.892 114.43 243.399L114.797 210.987C114.797 210.987 106.332 189.639 102.334 183.296C102.334 183.296 106.063 175.95 121.173 177.691Z" fill="white"/>
</mask>
<g mask="url(#mask0_509_3295)">
<path fill-rule="evenodd" clip-rule="evenodd" d="M126.58 181.15L131.315 187.702C131.315 187.702 116.18 196.954 101.432 193.827L97.4551 183.589L126.58 181.15Z" fill="#070764"/>
</g>
<path fill-rule="evenodd" clip-rule="evenodd" d="M62.9739 237.222C62.9739 237.222 75.5059 237.992 80.8792 236.89C86.2526 235.788 87.1022 241.8 80.1415 245.604C73.1808 249.407 64.8028 251.205 63.0081 248.638C61.2134 246.07 62.9739 237.222 62.9739 237.222Z" fill="#070764"/>
<path fill-rule="evenodd" clip-rule="evenodd" d="M97.9243 171.384C97.9243 171.384 84.8932 221.197 77.4323 239.585C77.4323 239.585 67.3916 246.23 54.5059 238.358C54.5059 238.358 75.0535 183.008 76.7054 166.146C76.7054 166.146 86.6096 161.457 97.9243 171.384Z" fill="#4B4CAD"/>
<mask id="mask1_509_3295" style="mask-type:luminance" maskUnits="userSpaceOnUse" x="54" y="165" width="44" height="78">
<path d="M97.973 171.31C97.973 171.31 84.7924 221.162 77.2868 239.574C77.2868 239.574 67.259 246.256 54.4562 238.433C54.4562 238.433 75.1459 183.017 76.8594 166.153C76.8594 166.153 86.7433 161.427 97.973 171.31Z" fill="white"/>
</mask>
<g mask="url(#mask1_509_3295)">
<path fill-rule="evenodd" clip-rule="evenodd" d="M95.9723 171.252L98.1938 183.858C98.1938 183.858 87.3541 196.075 70.9201 181.28L70.9247 170.883L95.9723 171.252Z" fill="#070764"/>
</g>
<path fill-rule="evenodd" clip-rule="evenodd" d="M128.251 127.957C132.803 132.076 132.006 139.12 131.105 146.152C130.397 151.674 124.354 161.129 124.354 161.129L127.993 183.637C127.993 183.637 86.8799 197.165 66.8866 163.583L77.964 139.564L90.9808 111.786C90.9808 111.786 122.344 122.613 128.251 127.957Z" fill="#6A6BF5"/>
<path fill-rule="evenodd" clip-rule="evenodd" d="M126.338 174.403C127.201 174.235 116.276 154.978 116.062 150.443C115.89 146.803 116.453 148.787 117.113 145.9C117.113 145.9 111.418 150.225 112.271 157.923C114.634 179.227 124.991 174.663 126.338 174.403Z" fill="#070764"/>
<path fill-rule="evenodd" clip-rule="evenodd" d="M154.707 174.951C154.707 174.951 150.657 170.405 152.799 165.543C152.799 165.543 157.969 162.377 162.772 162.959C169.357 163.758 166.409 166.963 166.247 168.046C166.247 168.046 167.974 167.956 167.927 171.163C167.881 174.371 165.563 174.798 165.563 174.798C165.563 174.798 166.275 178.991 163.137 176.939C163.137 176.939 157.949 177.595 154.707 174.951Z" fill="#9B9BF8"/>
<path fill-rule="evenodd" clip-rule="evenodd" d="M130.844 132.814C130.844 132.814 132.355 148.752 134.216 155.238C136.333 162.613 145.882 164.471 154.728 163.95C154.728 163.95 160.281 168.662 157.047 176.062C155.006 180.732 150.669 185.168 141.693 182.265C141.693 182.265 129.634 180.248 120.971 168.029C114.941 159.522 115.335 145.642 116.549 134.349C116.549 134.349 123.986 128.037 130.844 132.814Z" fill="#6A6BF5"/>
<path d="M120.357 125.068C130.893 126.377 140.707 118.684 142.278 107.885C143.849 97.0872 136.581 87.2729 126.045 85.9646C115.51 84.6562 105.695 92.3492 104.125 103.147C102.554 113.946 109.821 123.76 120.357 125.068Z" fill="#9B9BF8"/>
<path fill-rule="evenodd" clip-rule="evenodd" d="M140.234 105.05C140.234 105.05 144.064 103.525 145.53 105.315C146.995 107.106 140.326 111.105 140.326 111.105L140.234 105.05Z" fill="#9B9BF8"/>
<path fill-rule="evenodd" clip-rule="evenodd" d="M99.7664 85.0801C99.7664 85.0801 95.3438 86.5918 92.8619 92.3587C90.3801 98.1255 87.7251 103.283 82.6514 103.215C77.5774 103.148 71.4585 110.164 72.9999 115.993C72.9999 115.993 63.8392 115.469 62.879 127.126C61.9189 138.782 71.6961 141.929 77.3782 140.359C77.3782 140.359 80.6336 151.996 92.1354 147.554C92.1354 147.554 105.252 154.633 110.233 144.406C110.233 144.406 124.487 143.411 121.357 131.149C121.357 131.149 129.328 127.595 126.521 119.48C123.715 111.366 125.612 107.938 125.612 107.938C125.612 107.938 130.572 105.486 130.673 99.3145C130.673 99.3145 144.441 95.0845 142.536 85.0097C140.631 74.9348 129.46 70.7221 123.602 79.5713C122.632 74.2501 106.387 70.768 99.7664 85.0801Z" fill="#070764"/>
<path opacity="0.4" d="M190.287 267.304C209.75 267.304 225.528 260.047 225.528 251.095C225.528 242.143 209.75 234.886 190.287 234.886C170.824 234.886 155.046 242.143 155.046 251.095C155.046 260.047 170.824 267.304 190.287 267.304Z" fill="#4B4CAD"/>
<path fill-rule="evenodd" clip-rule="evenodd" d="M158.772 237.106C160.167 235.687 161.914 234.352 164.005 233.143C173.671 227.564 187.977 226.282 199.774 229.296L209.476 224.285V237.584L186.741 249.328V267.429C178.512 267.429 170.28 265.618 164.005 261.996C157.733 258.374 154.597 253.622 154.597 248.87V237.106H158.772ZM209.476 261.996C205.261 264.429 200.164 266.045 194.777 266.843C200.291 266.021 205.378 264.361 209.476 261.996Z" fill="#3B3CF2"/>
<path fill-rule="evenodd" clip-rule="evenodd" d="M218.883 249.111C218.779 253.782 215.642 258.435 209.477 261.996C205.379 264.36 200.291 266.021 194.778 266.843C192.146 267.234 189.443 267.429 186.741 267.429V248.87L209.477 235.744C212.644 237.574 215.014 239.691 216.58 241.951H218.885V249.111H218.883Z" fill="#4B4CAD"/>
<path fill-rule="evenodd" clip-rule="evenodd" d="M186.743 255.828C178.513 255.828 170.283 254.017 164.007 250.394C151.462 243.151 151.46 231.387 164.008 224.143C176.555 216.899 196.931 216.9 209.476 224.143L186.741 237.268L186.743 255.828ZM209.475 250.393C205.261 252.827 200.165 254.443 194.779 255.242C200.294 254.42 205.379 252.758 209.475 250.393Z" fill="#9B9BF8"/>
<path fill-rule="evenodd" clip-rule="evenodd" d="M209.477 229.351C222.024 236.595 222.024 248.358 209.477 255.602C205.379 257.967 200.291 259.628 194.778 260.45C192.146 260.84 189.443 261.035 186.741 261.035V242.477L209.477 229.351Z" fill="#6A6BF5"/>
<path d="M69.2852 77.894C85.5239 68.6523 90.669 47.4692 80.7771 30.5802C70.8852 13.6912 49.7021 7.49191 33.4634 16.7336C17.2246 25.9754 12.0795 47.1585 21.9715 64.0475C31.8634 80.9365 53.0464 87.1358 69.2852 77.894Z" fill="#4B4CAD"/>
<path d="M43.3469 38.609C43.7337 38.7875 44.1205 38.8768 44.5073 38.8768C45.4892 38.8768 46.4561 38.2371 47.4083 36.9577C47.7951 36.4519 48.4199 35.8419 49.2827 35.1278C50.1753 34.384 51.0977 33.7443 52.0498 33.2087C53.0019 32.6434 53.7755 32.3607 54.3706 32.3607C54.5789 32.3607 54.7723 32.4054 54.9508 32.4946C55.7244 32.9707 56.1112 33.5955 56.1112 34.3691C56.1112 35.2022 55.6798 36.2733 54.8169 37.5825C54.3111 38.3561 53.1209 39.7396 51.2465 41.7331C51.0977 41.9117 50.5621 42.4919 49.6398 43.4737C48.7174 44.4258 47.9736 45.3036 47.4083 46.1069C46.8132 46.9698 46.3818 47.907 46.114 48.9186C45.8462 49.9303 45.6826 50.8675 45.623 51.7304C45.5635 52.5932 45.504 53.8726 45.4445 55.5686C45.4445 56.3719 45.5189 56.9819 45.6677 57.3984C45.8462 57.7852 46.2479 58.0233 46.8727 58.1125C47.2297 58.172 47.4678 58.2018 47.5868 58.2018C48.3306 58.2018 49.0893 57.8596 49.8629 57.1753C50.3092 56.7885 50.5919 56.3422 50.7109 55.8364C50.8299 55.3008 50.8894 54.7801 50.8894 54.2743C50.8894 53.7387 50.8894 53.3519 50.8894 53.1139C50.8894 52.0725 50.9489 51.1353 51.0679 50.3022C51.0679 50.0939 51.2465 49.4542 51.6035 48.3831C51.9903 47.2822 52.3325 46.5532 52.63 46.1962L53.9689 44.8126L56.0666 42.358C57.7328 40.2157 58.9675 38.2817 59.7709 36.556C60.3362 35.3361 60.6188 34.1162 60.6188 32.8963C60.6188 31.4384 60.1577 30.2631 59.2353 29.3705C58.3129 28.4779 56.974 28.0465 55.2186 28.0762C53.1358 28.0762 51.2018 28.6267 49.4166 29.7275C47.6314 30.8284 45.8611 32.3459 44.1056 34.2798C43.7188 34.6964 43.3767 35.2022 43.0791 35.7973C42.7816 36.3626 42.6328 36.8833 42.6328 37.3593C42.6328 37.9544 42.8708 38.371 43.3469 38.609ZM50.2646 63.4682C50.5026 63.736 50.6216 64.0633 50.6216 64.4501C50.6216 65.0154 50.339 65.5509 49.7737 66.0567C49.2083 66.5328 48.5984 66.8452 47.9438 66.994C47.6463 67.0535 47.4083 67.0832 47.2297 67.0832C46.6049 67.0832 46.0396 66.9196 45.5338 66.5923C45.028 66.2948 44.7751 65.8634 44.7751 65.298C44.7751 65.0005 44.8346 64.7178 44.9536 64.4501C45.1916 63.8252 45.5933 63.3492 46.1586 63.0219C46.7537 62.6946 47.3934 62.5309 48.0777 62.5309C48.524 62.5309 48.9406 62.6202 49.3274 62.7987C49.7142 62.9475 50.0266 63.1706 50.2646 63.4682Z" fill="white"/>
<path fill-rule="evenodd" clip-rule="evenodd" d="M75.7731 83.2432C75.8452 84.5764 75.1871 85.8088 74.0635 86.4483C72.94 87.0878 71.5284 87.0335 70.3932 86.3053C62.0098 80.9293 47.4094 71.566 47.4094 71.566L74.3213 56.2482C74.3213 56.2482 75.2422 73.3976 75.7731 83.2432Z" fill="#4B4CAD"/>
</g>
<defs>
<clipPath id="clip0_509_3295">
<rect width="265" height="268" fill="white"/>
</clipPath>
</defs>
</svg>
