<svg width="450" height="340" viewBox="0 0 450 340" fill="none" xmlns="http://www.w3.org/2000/svg">
<g clip-path="url(#clip0_281_3948)">
<path opacity="0.3" d="M198.626 49.1007C174.111 69.5485 154.442 95.5337 128.385 113.919C104.303 130.921 75.2466 141.13 54.5248 162.083C36.8401 179.973 26.9316 204.12 26.9532 229.276C26.9748 254.431 36.9247 278.562 54.6402 296.421C79.4141 321.397 116.056 330.799 151.169 332.659C186.282 334.519 221.525 329.89 256.652 331.779C289.891 333.568 322.985 341.181 356.152 338.643C389.318 336.105 424.489 320.488 437.611 289.903C452.118 256.059 435.491 217.975 424.027 182.978C415.356 156.526 409.63 129.197 406.954 101.489C402.974 60.0456 395.663 2.49469 343.505 0.201885C290.853 -1.7913 239.301 15.6084 198.626 49.1007Z" fill="#4B4CAD"/>
<path d="M348.278 294.691C269.529 304.785 189.742 297.027 110.345 297.258C104.577 297.258 96.7179 299.651 97.6264 305.318C143.771 316.22 191.689 317.071 239.132 317.878L325.465 319.32C345.206 319.652 364.962 319.984 384.588 318.873C391.928 318.455 399.455 317.777 406.074 314.547C424.662 305.463 415.447 293.508 399.412 291.475C382.468 289.341 365.135 292.528 348.278 294.691Z" fill="url(#paint0_linear_281_3948)"/>
<path d="M233.364 74.7975V288.504C233.364 297.748 241.554 305.217 251.649 305.203L349.36 305.059C359.454 305.059 367.644 297.532 367.644 288.303V74.5811C367.644 65.3378 359.454 57.8538 349.36 57.8826L251.649 58.0268C241.554 58.0412 233.364 65.5541 233.364 74.7975ZM242.679 74.9417C242.679 69.2457 247.726 64.6168 253.956 64.6168H267.727V65.8858C267.813 67.7144 268.62 69.4345 269.971 70.6696C271.323 71.9047 273.108 72.5541 274.937 72.4758L327.47 72.3893C329.299 72.4599 331.083 71.8058 332.433 70.5692C333.783 69.3327 334.59 67.6134 334.68 65.7848V64.5159H348.898C355.128 64.5159 360.175 69.1159 360.175 74.8119V287.87C360.175 293.566 355.128 298.18 348.898 298.195L253.956 298.353C247.726 298.353 242.679 293.753 242.679 288.057V74.9417Z" fill="#6A6BF5"/>
<path d="M228.764 79.1812V292.903C228.764 302.146 236.954 309.616 247.048 309.601L344.774 309.443C354.868 309.443 363.059 301.93 363.059 292.686V78.9793C363.059 69.736 354.868 62.2519 344.774 62.2663L247.048 62.4249C236.954 62.4394 228.764 69.9523 228.764 79.1812ZM238.094 79.3398C238.094 73.5717 243.126 69.015 249.356 69.0005H263.127V70.2695C263.213 72.097 264.02 73.8156 265.372 75.0484C266.724 76.2812 268.509 76.9273 270.337 76.8451H322.855C324.687 76.9156 326.473 76.2596 327.823 75.0199C329.173 73.7803 329.979 72.0574 330.065 70.2263V68.9717H344.298C350.513 68.9717 355.56 73.5717 355.56 79.2677V292.268C355.56 297.95 350.513 302.579 344.298 302.593L249.428 302.795C243.198 302.795 238.166 298.195 238.166 292.499L238.094 79.3398Z" fill="#F7F7FE"/>
<path d="M238.094 79.2822V292.441C238.094 298.209 243.126 302.752 249.356 302.737L344.313 302.593C350.528 302.593 355.575 297.95 355.575 292.268V79.1524C355.575 73.3843 350.528 68.8419 344.313 68.8564H330.08V70.1109C329.994 71.942 329.188 73.6649 327.838 74.9046C326.487 76.1443 324.702 76.8003 322.87 76.7298H270.352C268.524 76.812 266.739 76.1658 265.387 74.9331C264.035 73.7003 263.228 71.9816 263.142 70.1542V68.8852H249.428C243.126 69.015 238.094 73.6439 238.094 79.2822Z" stroke="url(#paint1_linear_281_3948)" stroke-width="0.585459" stroke-miterlimit="10"/>
<path d="M238.094 79.2822V292.441C238.094 298.209 243.126 302.752 249.356 302.737L344.313 302.593C350.528 302.593 355.575 297.95 355.575 292.268V79.1524C355.575 73.3843 350.528 68.8419 344.313 68.8564H330.08V70.1109C329.994 71.942 329.188 73.6649 327.838 74.9046C326.487 76.1443 324.702 76.8003 322.87 76.7298H270.352C268.524 76.812 266.739 76.1658 265.387 74.9331C264.035 73.7003 263.228 71.9816 263.142 70.1542V68.8852H249.428C243.126 69.015 238.094 73.6439 238.094 79.2822Z" fill="#6A6BF5"/>
<path opacity="0.28" d="M341.789 134.483H257.503V155.075H341.789V134.483Z" fill="#F7F7FE"/>
<path opacity="0.28" d="M341.789 104.085H257.503V124.677H341.789V104.085Z" fill="#F7F7FE"/>
<path d="M300.071 145.745V147.057L344.601 179.445C344.601 179.445 345.423 187.073 346.62 187.981C348.492 188.948 350.459 189.721 352.489 190.289V195.35L363.116 202.719L366.476 203.872V193.202L351.941 181.665L347.398 176.474L345.639 177.916L300.071 145.745Z" fill="url(#paint2_linear_281_3948)"/>
<path d="M289.458 72.173L307.498 72.1441V70.6733L289.458 70.7021V72.173Z" fill="url(#paint3_linear_281_3948)"/>
<path d="M284.714 73.0202C285.797 73.0096 286.667 72.194 286.657 71.1985C286.648 70.2031 285.762 69.4047 284.679 69.4153C283.596 69.4259 282.726 70.2414 282.735 71.2369C282.745 72.2323 283.631 73.0307 284.714 73.0202Z" fill="url(#paint4_linear_281_3948)"/>
<path d="M6.73633 193.951C6.82285 197.571 8.62537 200.902 10.3991 204.045C18.5032 218.365 27.6023 232.482 40.1767 243.11C58.6345 258.741 82.8316 265.475 106.192 271.791C104.101 270.768 101.578 260.01 100.655 257.645C98.8524 253.002 97.1653 248.33 95.4204 243.672C92.6806 236.303 86.9125 230.377 81.3031 224.926C68.5882 212.695 53.1622 203.643 36.2833 198.508C26.6979 195.606 16.7507 194.072 6.73633 193.951Z" fill="#6A6BF5"/>
<path d="M6.73633 193.951C6.82285 197.571 8.62537 200.902 10.3991 204.045C18.5032 218.365 27.6023 232.482 40.1767 243.11C58.6345 258.741 82.8316 265.475 106.192 271.791C104.101 270.768 101.578 260.01 100.655 257.645C98.8524 253.002 97.1653 248.33 95.4204 243.672C92.6806 236.303 86.9125 230.377 81.3031 224.926C68.5882 212.695 53.1622 203.643 36.2833 198.508C26.6979 195.606 16.7507 194.072 6.73633 193.951Z" fill="url(#paint5_linear_281_3948)"/>
<path d="M98.1314 201.969C96.2279 188.645 94.2668 175.119 88.9025 162.775C83.5382 150.431 74.2372 139.184 61.6195 134.483C61.2638 153.575 60.8985 172.667 60.5236 191.759C60.3217 202.791 60.1342 214.024 63.2923 224.594C68.8296 243.095 88.095 264.827 106.668 270.941C109.422 262.043 104.808 248.575 103.496 239.332L98.1314 201.969Z" fill="#6A6BF5"/>
<path d="M98.1314 201.969C96.2279 188.645 94.2668 175.119 88.9025 162.775C83.5382 150.431 74.2372 139.184 61.6195 134.483C61.2638 153.575 60.8985 172.667 60.5236 191.759C60.3217 202.791 60.1342 214.024 63.2923 224.594C68.8296 243.095 88.095 264.827 106.668 270.941C109.422 262.043 104.808 248.575 103.496 239.332L98.1314 201.969Z" fill="url(#paint6_linear_281_3948)"/>
<path d="M169.987 174.773C169.338 174.773 168.934 174.08 168.776 173.446C168.719 172.798 168.444 172.188 167.997 171.716C167.737 171.514 167.362 171.384 167.261 171.067C167.225 170.925 167.225 170.776 167.261 170.634C167.44 169.9 167.778 169.215 168.251 168.626C168.725 168.038 169.322 167.562 170.001 167.231C170.693 167.836 171.746 167.822 172.409 168.457C173.107 169.24 173.645 170.15 173.996 171.139L180.456 186.482L182.475 191.269C183.251 192.797 183.689 194.474 183.758 196.187C183.781 197.045 183.535 197.889 183.054 198.6C182.573 199.311 181.881 199.854 181.076 200.152C180.522 200.272 179.949 200.267 179.398 200.137C178.846 200.008 178.331 199.756 177.889 199.402C177.008 198.679 176.307 197.761 175.841 196.72C174.169 193.346 173.924 189.51 173.419 185.717C172.914 181.925 172.554 177.541 169.987 174.773Z" fill="#DA6E74"/>
<path d="M169.367 186.828C169.209 186.7 169.026 186.607 168.83 186.555C168.634 186.502 168.428 186.492 168.228 186.525C168.017 186.602 167.832 186.737 167.694 186.914C167.001 187.728 166.509 188.694 166.258 189.734C166.008 190.774 166.006 191.858 166.252 192.899C166.403 193.804 166.814 194.646 167.435 195.321C168.12 195.921 168.92 196.377 169.785 196.662L176.736 199.431C177.261 199.696 177.852 199.806 178.437 199.748C178.742 199.661 179.027 199.514 179.274 199.316C179.522 199.118 179.727 198.873 179.879 198.595C180.319 197.898 180.598 197.112 180.698 196.294C180.798 195.477 180.715 194.647 180.456 193.865C179.158 189.813 172.698 188.789 169.367 186.828Z" fill="#DA6E74"/>
<path d="M162.099 177.512L167.622 182.761L171.645 186.583C172.554 187.448 173.707 188.227 174.082 189.467C174.544 191.217 174.381 193.073 173.621 194.716C172.763 196.461 172.129 198.306 171.732 200.21C171.732 199.518 169.526 197.917 169.035 197.528C167.968 196.691 166.843 195.956 165.776 195.134C164.709 194.312 163.383 193.461 163.008 192.394C162.9 191.707 162.866 191.011 162.907 190.318L162.2 179.214L162.099 177.512Z" fill="#6A6BF5"/>
<path d="M162.099 177.512L167.622 182.761L171.645 186.583C172.554 187.448 173.707 188.227 174.082 189.467C174.544 191.217 174.381 193.073 173.621 194.716C172.763 196.461 172.129 198.306 171.732 200.21C171.732 199.518 169.526 197.917 169.035 197.528C167.968 196.691 166.843 195.956 165.776 195.134C164.709 194.312 163.383 193.461 163.008 192.394C162.9 191.707 162.866 191.011 162.907 190.318L162.2 179.214L162.099 177.512Z" fill="url(#paint7_linear_281_3948)"/>
<path d="M241.151 245.287C239.833 246.599 238.788 248.159 238.075 249.876C237.362 251.594 236.996 253.435 236.998 255.295C236.985 257.282 237.398 259.249 238.209 261.063C239.061 263.009 240.342 264.738 241.954 266.121C243.567 267.504 245.471 268.506 247.524 269.052V272.296H76.9915C72.5852 272.168 68.4025 270.327 65.3312 267.165C62.26 264.003 60.542 259.768 60.542 255.36C60.542 250.952 62.26 246.717 65.3312 243.555C68.4025 240.393 72.5852 238.552 76.9915 238.423H247.524V241.668C245.118 242.291 242.919 243.54 241.151 245.287Z" fill="#6A6BF5"/>
<path d="M247.524 268.994V272.238H76.9911C73.4436 272.243 69.9845 271.132 67.104 269.061C64.2234 266.991 62.0674 264.066 60.9414 260.702C67.4161 261.842 108.427 268.374 131.254 255.352L238.209 261.121C239.075 263.045 240.361 264.752 241.973 266.114C243.585 267.476 245.482 268.461 247.524 268.994Z" fill="url(#paint8_linear_281_3948)"/>
<path d="M241.151 245.287C239.389 247.046 238.123 249.239 237.479 251.643C236.834 254.048 236.836 256.58 237.482 258.984C238.128 261.388 239.397 263.579 241.16 265.336C242.923 267.094 245.118 268.355 247.525 268.994V269.47H145.43C141.674 269.47 138.072 267.978 135.417 265.322C132.761 262.667 131.269 259.065 131.269 255.309C131.269 251.554 132.761 247.952 135.417 245.296C138.072 242.641 141.674 241.149 145.43 241.149H247.525V241.61C245.112 242.25 242.913 243.519 241.151 245.287Z" fill="#F7F7FE"/>
<path d="M221.352 264.668C221.961 264.93 222.622 265.048 223.284 265.014L233.378 265.259C233.65 265.274 233.923 265.245 234.186 265.173C234.479 265.023 234.719 264.786 234.871 264.494C235.024 264.202 235.081 263.869 235.037 263.543C234.899 262.686 234.494 261.895 233.881 261.281C233.267 260.668 232.476 260.263 231.619 260.126C229.906 259.868 228.174 259.762 226.442 259.808C225.739 259.807 225.046 259.642 224.418 259.327C223.79 259.012 223.243 258.554 222.823 257.991C222.03 256.996 221.078 255.973 219.766 256.924C217.703 258.496 219.391 263.615 221.352 264.668Z" fill="#DA6E74"/>
<path d="M170.722 219.014C170.722 219.014 198.914 218.134 205.922 221.076C212.93 224.017 223.817 257.876 223.817 257.876L217.934 260.126C217.934 260.126 207.926 239.043 204.639 237.154C201.351 235.265 166.122 228.343 166.122 228.343C166.122 228.343 163.426 226.281 170.722 219.014Z" fill="#474747"/>
<path d="M170.722 219.014C170.722 219.014 198.914 218.134 205.922 221.076C212.93 224.017 223.817 257.876 223.817 257.876L217.934 260.126C217.934 260.126 207.926 239.043 204.639 237.154C201.351 235.265 166.122 228.343 166.122 228.343C166.122 228.343 163.426 226.281 170.722 219.014Z" fill="url(#paint9_linear_281_3948)"/>
<path d="M241.151 279.146C239.823 280.468 238.772 282.042 238.059 283.775C237.346 285.508 236.985 287.366 236.998 289.24C236.995 291.203 237.408 293.144 238.209 294.936C239.059 296.884 240.338 298.614 241.951 299.998C243.564 301.381 245.47 302.382 247.524 302.925V306.169H76.9913C74.7681 306.169 72.5667 305.731 70.5127 304.881C68.4588 304.03 66.5925 302.783 65.0205 301.211C63.4485 299.639 62.2015 297.772 61.3507 295.718C60.4999 293.664 60.062 291.463 60.062 289.24C60.062 287.017 60.4999 284.815 61.3507 282.761C62.2015 280.707 63.4485 278.841 65.0205 277.269C66.5925 275.697 68.4588 274.45 70.5127 273.599C72.5667 272.748 74.7681 272.311 76.9913 272.311H247.524V275.541C245.122 276.166 242.924 277.409 241.151 279.146Z" fill="#6A6BF5"/>
<path d="M247.524 302.795V306.039H76.9911C73.4436 306.044 69.9845 304.933 67.104 302.862C64.2234 300.792 62.0674 297.867 60.9414 294.503C67.4161 295.643 108.427 302.175 131.254 289.168L238.209 294.864C239.065 296.801 240.348 298.52 241.96 299.893C243.573 301.266 245.475 302.258 247.524 302.795Z" fill="url(#paint10_linear_281_3948)"/>
<path d="M241.151 279.146C239.404 280.906 238.15 283.094 237.515 285.492C236.879 287.889 236.884 290.411 237.53 292.805C238.175 295.2 239.438 297.383 241.192 299.136C242.946 300.889 245.13 302.151 247.525 302.795V303.271H145.43C141.674 303.271 138.072 301.779 135.417 299.123C132.761 296.468 131.269 292.866 131.269 289.11C131.269 285.354 132.761 281.753 135.417 279.097C138.072 276.441 141.674 274.95 145.43 274.95H247.525V275.411C245.108 276.073 242.91 277.362 241.151 279.146Z" fill="#F7F7FE"/>
<path d="M213.623 274.56C214.176 274.558 214.727 274.646 215.252 274.82C215.514 274.906 215.746 275.067 215.92 275.281C216.094 275.496 216.202 275.756 216.233 276.031C216.213 276.302 216.126 276.563 215.98 276.792C215.834 277.021 215.633 277.211 215.396 277.343C214.935 277.632 214.416 277.805 213.954 278.107C213.571 278.43 213.161 278.719 212.729 278.973C211.95 279.198 211.12 279.163 210.364 278.872C206.83 278.02 203.175 277.791 199.563 278.194C199.209 278.237 198.85 278.237 198.496 278.194C197.984 278.045 197.518 277.769 197.142 277.39C196.766 277.012 196.493 276.544 196.347 276.031C195.624 273.829 195.407 271.493 195.713 269.196C195.715 268.944 195.779 268.696 195.9 268.475C196.036 268.289 196.221 268.144 196.434 268.057C199.866 266.355 201.74 269.744 204.25 271.388C207.041 273.25 210.274 274.344 213.623 274.56Z" fill="#DA6E74"/>
<path d="M151.601 220.773C151.601 220.773 150.75 233.578 162.186 237.443C170.117 240.11 179.23 239.62 187.435 238.885C188.877 238.755 190.464 238.409 191.934 238.423C194.818 238.423 194.227 240.327 194.198 242.749C194.198 248.883 194.146 255.011 194.04 261.135C193.776 264.349 194.234 267.581 195.381 270.595L203.817 268.345C203.59 259.469 204.101 250.589 205.345 241.798C205.893 237.991 206.715 233.232 204.163 229.987C201.683 227.082 198.411 224.963 194.746 223.888L171.905 216.678L151.601 220.773Z" fill="#474747"/>
<path d="M168.055 161.982C168.473 162.688 169.338 163.107 169.627 163.9C169.915 164.693 169.309 165.803 168.963 166.784C168.502 168.096 168.646 169.567 168.185 170.894C168.105 171.182 167.945 171.443 167.723 171.643C167.508 171.781 167.268 171.874 167.017 171.917C166.04 172.119 165.039 172.177 164.046 172.09C163.859 172.024 163.656 172.024 163.469 172.09C163.326 172.222 163.234 172.401 163.21 172.595C162.634 175.096 162.674 177.698 163.325 180.18C163.541 180.988 163.772 181.997 163.166 182.574C162.957 182.778 162.69 182.914 162.402 182.963C160.513 183.425 158.696 182.026 157.413 180.569C156.285 179.246 155.317 177.794 154.529 176.243C154.272 175.799 154.101 175.309 154.024 174.801C153.988 174.196 154.067 173.59 154.255 173.013C154.79 170.946 155.119 168.83 155.235 166.697C155.38 163.972 155.235 161.131 156.216 158.608C156.529 157.743 157.11 157 157.874 156.488C158.775 156.071 159.772 155.906 160.758 156.012C162.758 155.88 164.732 156.526 166.267 157.814C166.714 158.29 167.521 161.102 168.055 161.982Z" fill="#DA6E74"/>
<path d="M170.722 219.014C169.444 220.128 167.938 220.95 166.31 221.422C165.156 221.826 163.974 222.201 162.777 222.575C161.08 223.086 159.422 223.717 157.816 224.464C156.115 225.027 154.846 225.445 153.879 225.733C153.009 226.042 152.123 226.307 151.226 226.527C151.314 226.477 151.406 226.433 151.5 226.397C151.5 226.397 150.923 223.844 150.058 220.268C148.616 213.693 146.194 203.699 145.025 199.965C144.475 197.603 144.334 195.164 144.607 192.755C145.199 184.823 148.342 174.47 154.11 175.133C154.11 175.133 162.272 179.358 164.738 182.646C166.987 185.689 169.987 187.981 170.016 192.091C170.088 197.859 167.68 203.267 168.141 209.237C168.149 210.107 168.367 210.963 168.776 211.731C169.468 212.813 170.838 213.332 171.515 214.414C171.898 215.163 172.028 216.016 171.885 216.846C171.742 217.675 171.334 218.436 170.722 219.014Z" fill="#6A6BF5"/>
<path d="M161.695 217.874C162.655 219.241 163.043 220.927 162.777 222.575C162.638 223.131 162.337 223.633 161.912 224.017C161.221 224.532 160.413 224.869 159.561 224.998C157.695 225.424 155.793 225.67 153.88 225.733C153.202 225.733 152.524 225.733 151.846 225.733C151.789 223.775 151.184 221.872 150.102 220.239C148.66 213.664 146.237 203.671 145.069 199.936C144.518 197.574 144.377 195.135 144.651 192.726C145.62 191.51 146.424 190.172 147.045 188.746C147.477 187.621 148.198 186.395 149.409 186.309C150.621 186.222 151.327 187.116 151.991 187.953C156.115 193.216 159.129 199.719 162.748 205.372C162.935 205.612 163.041 205.905 163.051 206.209C162.968 206.526 162.767 206.799 162.489 206.973C160.931 208.271 159.273 209.857 159.1 211.847C158.927 213.837 160.513 215.985 161.695 217.874Z" fill="url(#paint11_linear_281_3948)"/>
<path d="M157.571 211.457C157.833 212.237 158.223 212.968 158.725 213.62C160.055 214.904 161.822 215.635 163.671 215.668C165.788 215.886 167.916 215.997 170.044 216C171.487 216 173.765 215.308 174.976 216.461C175.265 216.75 175.481 217.096 175.784 217.37C176.581 217.983 177.579 218.276 178.581 218.192C180.766 218.231 182.944 217.94 185.041 217.326C185.13 217.32 185.215 217.289 185.288 217.237C185.36 217.185 185.417 217.115 185.453 217.034C185.488 216.952 185.501 216.863 185.489 216.775C185.478 216.686 185.443 216.603 185.388 216.533C184.961 215.27 184.327 214.086 183.513 213.029C183.103 212.505 182.58 212.078 181.984 211.781C181.388 211.484 180.733 211.324 180.067 211.313C179.377 211.394 178.696 211.538 178.033 211.746C176.018 212.038 173.964 211.901 172.006 211.342C169.723 211.032 167.523 210.277 165.531 209.121C164.983 208.671 164.536 208.111 164.219 207.477C163.311 205.765 162.586 203.963 162.056 202.099C161.839 201.378 161.522 200.556 160.801 200.311C160.536 200.252 160.262 200.245 159.995 200.292C159.728 200.339 159.473 200.439 159.244 200.585C157.474 201.394 156.073 202.841 155.321 204.637C154.788 206.482 156.836 209.655 157.571 211.457Z" fill="#DA6E74"/>
<path d="M157.312 185.847C157.312 185.847 162.46 199.777 163.469 200.801C164.479 201.825 153.548 208.011 153.548 208.011C153.548 208.011 146.425 194.456 146.756 188.587C147.088 182.718 153.289 180.31 157.312 185.847Z" fill="#6A6BF5"/>
<path d="M165.43 157.598C165.267 158.94 164.627 160.178 163.628 161.088C162.662 161.996 161.465 162.602 160.47 163.482C159.938 163.874 159.513 164.394 159.236 164.994C158.958 165.594 158.837 166.254 158.883 166.914C158.497 166.762 158.07 166.749 157.675 166.878C157.28 167.007 156.943 167.27 156.72 167.62C156.627 167.859 156.599 168.119 156.64 168.373C156.68 168.626 156.788 168.864 156.951 169.062C157.13 169.266 157.353 169.426 157.602 169.531C157.852 169.636 158.123 169.683 158.393 169.668C157.359 170.083 156.47 170.796 155.841 171.715C154.24 174.095 152.38 175.883 152.957 179.055C153.389 181.175 154.529 183.093 155.134 185.169C155.704 187.127 155.795 189.193 155.4 191.193C155.004 193.193 154.134 195.069 152.861 196.662C151.589 198.255 149.952 199.519 148.089 200.348C146.226 201.176 144.191 201.544 142.156 201.421C138.32 201.205 134.326 198.71 133.706 194.918C133.014 190.591 136.705 186.77 137.123 182.43C137.34 180.079 136.59 177.657 137.123 175.364C137.917 172.191 140.959 170.23 143.266 167.923C148.213 162.948 148.241 154.729 156.043 152.638C159.677 151.758 165.791 152.825 165.43 157.598Z" fill="#111111"/>
<path d="M180.715 216.418L189.815 193.274H213.867L201.769 221.076L164.925 219.691L166.108 217.456L180.715 216.418Z" fill="#6A6BF5"/>
<path d="M180.715 216.418L189.815 193.274H213.867L201.769 221.076L164.925 219.691L166.108 217.456L180.715 216.418Z" fill="url(#paint12_linear_281_3948)"/>
<path d="M232.124 259.534C231.554 259.302 230.934 259.223 230.325 259.304C229.715 259.384 229.137 259.623 228.648 259.996C228.158 260.486 227.913 261.164 227.423 261.654C226.723 262.201 225.859 262.496 224.971 262.49C223.564 262.594 222.148 262.516 220.761 262.26C220.533 262.204 220.296 262.204 220.068 262.26C219.886 262.336 219.731 262.468 219.625 262.635C219.519 262.803 219.468 262.999 219.477 263.197C219.505 263.59 219.613 263.972 219.794 264.322C219.999 264.894 220.364 265.395 220.847 265.764C221.333 266.011 221.875 266.126 222.419 266.096C226.155 266.276 229.9 266.189 233.623 265.836C234.557 265.813 235.454 265.466 236.161 264.855C238.238 262.721 233.739 260.053 232.124 259.534Z" fill="#6A6BF5"/>
<path d="M208.763 272.513C208.273 272.513 207.782 272.513 207.321 272.513C207.144 272.483 206.964 272.483 206.787 272.513C206.449 272.654 206.163 272.896 205.965 273.205C205.49 273.81 205.057 274.647 204.336 274.95C203.677 275.219 202.982 275.389 202.274 275.454C200.675 275.589 199.065 275.477 197.501 275.123C197.274 275.066 197.036 275.066 196.809 275.123C196.625 275.198 196.469 275.328 196.363 275.496C196.257 275.664 196.206 275.861 196.217 276.06C196.245 276.453 196.353 276.835 196.535 277.185C196.723 277.86 197.135 278.452 197.704 278.863C198.272 279.275 198.963 279.481 199.664 279.449H205.547C207.364 279.449 209.181 279.449 210.998 279.377C212.226 279.356 213.447 279.181 214.632 278.857C215.451 278.655 216.184 278.195 216.723 277.545C216.979 277.212 217.118 276.804 217.118 276.384C217.118 275.964 216.979 275.556 216.723 275.224C216.359 274.879 215.912 274.636 215.425 274.517L211.604 273.19C210.878 272.915 210.13 272.703 209.369 272.556L208.763 272.513Z" fill="#6A6BF5"/>
<path d="M357.377 177.628H357.276C356.822 177.294 356.418 176.896 356.079 176.445C355.046 175.142 353.78 174.042 352.345 173.201C351.753 172.855 350.903 172.581 350.441 173.1C350.283 173.273 350.21 173.518 350.037 173.677C349.634 174.052 348.985 173.806 348.523 173.518C348.062 173.23 347.471 172.912 346.995 173.201C346.853 173.311 346.74 173.454 346.665 173.617C346.589 173.78 346.554 173.959 346.562 174.138C346.621 174.974 346.888 175.783 347.341 176.489C348.03 177.872 348.821 179.202 349.706 180.469C349.922 180.851 350.24 181.166 350.624 181.38C351.009 181.593 351.444 181.697 351.883 181.68C353.255 181.679 354.605 182.026 355.805 182.689C356.033 182.906 356.318 183.052 356.627 183.107C357.507 183.194 357.81 180.483 357.954 179.863C358.026 179.56 358.416 178.551 358.271 178.248C358.127 177.945 357.666 177.786 357.377 177.628Z" fill="#DA6E74"/>
<path d="M380.392 230.925L381.79 300.17H391.178L393.889 245.143L399.801 300.17L410.559 301.973L413.024 228.661L380.392 230.925Z" fill="#6A6BF5"/>
<path d="M380.392 230.925L381.79 300.17H391.178L393.889 245.143L399.801 300.17L410.559 301.973L413.024 228.661L380.392 230.925Z" fill="url(#paint13_linear_281_3948)"/>
<path d="M404.127 299.089V234.905L413.025 228.661L410.025 300.17L404.127 299.089Z" fill="url(#paint14_linear_281_3948)"/>
<path d="M354.839 185.588L355.041 185.761C357.046 187.491 372.807 201.061 375.229 200.267C378.482 198.799 381.624 197.098 384.631 195.177L385.425 194.701V175.638L375.532 187.434L358.041 177.123L354.839 185.588Z" fill="#6A6BF5"/>
<path d="M355.041 185.761C357.045 187.491 372.807 201.061 375.229 200.267C378.482 198.799 381.624 197.098 384.631 195.177C384.73 194.403 384.764 193.621 384.732 192.841C384.732 191.154 385.323 187.073 382.728 188.054C380.622 188.861 379.094 191.586 376.96 192.61C376.293 193.208 375.466 193.599 374.58 193.735C373.138 193.822 371.985 192.654 370.975 191.63C367.461 188.014 363.336 185.046 358.79 182.862C358.594 182.745 358.37 182.685 358.141 182.689C357.882 182.756 357.654 182.908 357.492 183.122C356.685 184.016 355.863 184.896 355.041 185.761Z" fill="url(#paint15_linear_281_3948)"/>
<path d="M406.06 169.668C408.565 170.923 411.005 172.304 413.371 173.806C418.389 177.022 417.495 178.507 416.572 184.059C414.625 195.928 413.66 207.938 413.688 219.965C413.882 222.864 413.674 225.776 413.068 228.617C412.549 230.406 411.352 231.905 411.208 233.794C403.464 234.861 385.742 238.841 380.435 230.91C375.359 223.296 384.501 196.302 382.8 184.218C381.098 172.134 396.672 170.85 396.672 170.85L406.06 169.668Z" fill="#6A6BF5"/>
<path d="M395.389 225.171L409.42 234.645L411.712 231.761C413.069 226.881 413.701 221.828 413.587 216.764C413.255 209.208 413.587 211.905 413.587 211.905L393.846 224.392L395.389 225.171Z" fill="url(#paint16_linear_281_3948)"/>
<path d="M388.395 157.959C388.386 158.759 388.434 159.559 388.539 160.352C388.913 162.001 389.561 163.576 390.457 165.01C390.689 165.515 391.034 165.959 391.467 166.308C392.363 166.751 393.395 166.834 394.351 166.539C394.579 166.488 394.815 166.488 395.043 166.539C395.591 166.755 395.663 167.505 395.634 168.096L395.475 170.85C395.418 171.226 395.484 171.611 395.663 171.946C395.853 172.177 396.11 172.344 396.398 172.422C397.415 172.756 398.503 172.807 399.547 172.571C400.591 172.335 401.551 171.82 402.325 171.081C402.709 170.725 403.022 170.299 403.248 169.826C403.434 169.365 403.551 168.88 403.594 168.384C403.926 165.746 403.594 163.078 403.839 160.439C404.181 158.259 404.244 156.045 404.027 153.849C403.819 152.674 403.323 151.568 402.583 150.632C401.843 149.696 400.882 148.958 399.787 148.485C397.512 147.766 395.062 147.821 392.822 148.643C391.722 148.952 390.639 149.318 389.578 149.739C389.061 149.875 388.614 150.199 388.323 150.648C387.905 151.498 388.323 152.724 388.323 153.633C388.424 155.089 388.395 156.531 388.395 157.959Z" fill="#DA6E74"/>
<path d="M406.896 148.095C404.819 144.98 399.974 144.923 396.6 144.476C396.117 144.448 395.649 144.294 395.244 144.029C395.146 143.956 395.063 143.865 395.001 143.76C394.938 143.654 394.898 143.538 394.882 143.417C394.866 143.295 394.874 143.172 394.907 143.054C394.939 142.937 394.995 142.827 395.071 142.731L392.505 144.173V142.269C391.624 142.966 390.694 143.597 389.721 144.159V142.457C388.589 143.338 387.744 144.538 387.297 145.902C386.85 147.266 386.821 148.733 387.212 150.114C388.034 152.998 392.389 153.301 394.826 153.171C395.498 153.113 396.173 153.113 396.845 153.171C397.515 153.245 398.137 153.551 398.604 154.036C399.145 154.951 399.448 155.988 399.484 157.05C399.493 157.113 399.518 157.173 399.556 157.223C399.599 157.229 399.643 157.229 399.686 157.223C400.436 157.31 401.128 156.43 401.82 156.733C401.988 156.826 402.128 156.962 402.226 157.126C402.325 157.291 402.379 157.478 402.382 157.67C402.436 158.131 402.372 158.597 402.195 159.026C402.103 159.191 402.044 159.372 402.022 159.559C402.03 159.683 402.059 159.805 402.108 159.92L402.584 161.232C402.708 161.716 402.999 162.14 403.406 162.429C403.713 162.522 404.038 162.538 404.353 162.475C404.667 162.412 404.961 162.272 405.209 162.068C405.585 161.878 405.915 161.607 406.175 161.275C406.347 160.982 406.464 160.659 406.521 160.324C407.156 157.057 407.417 153.728 407.3 150.402C407.33 149.613 407.193 148.827 406.896 148.095Z" fill="#AD2B33"/>
<path d="M403.608 168.413C403.608 168.413 405.757 169.855 405.699 171.542C405.641 173.23 393.99 206.007 393.99 206.007C393.99 206.007 393.73 174.585 393.99 173.129C394.386 171.709 394.912 170.328 395.562 169.005C395.562 169.005 400.219 172.379 403.608 168.413Z" fill="#F7F7FE"/>
<path d="M399.801 171.369L400.58 173.907L399.268 175.018L398.633 192.827L394.005 205.992L393.889 192.61L397.869 174.931L396.413 172.436L398.331 171.369H399.801Z" fill="#4B4CAD"/>
<path d="M391.178 217.716C392.551 219.451 394.108 221.032 395.822 222.431L396.889 223.282C397.276 223.618 397.751 223.838 398.259 223.916C398.609 223.909 398.953 223.825 399.268 223.671C406.051 221.031 412.697 218.051 419.182 214.745C421.908 213.303 424.878 211.53 425.455 208.53C425.604 207.49 425.58 206.433 425.383 205.401C424.356 197.823 422.374 190.405 419.485 183.324C418.663 181.319 417.654 177.455 415.505 176.114L415.246 175.984L414.943 175.84C412.059 174.801 409.55 177.685 408.756 180.166C407.857 183.712 407.972 187.439 409.088 190.923C410.203 194.381 411.028 197.927 411.554 201.522C411.629 202.007 411.58 202.503 411.41 202.964C411.136 203.423 410.755 203.809 410.299 204.089L391.178 217.716Z" fill="#6A6BF5"/>
<path d="M391.178 300.17L390.673 305.275L387.458 305.866L386.016 304.597L383.535 306.544H373.888C373.888 306.544 371.437 302.319 376.772 300.877L382.093 299.435L391.178 300.17Z" fill="#4B4CAD"/>
<path d="M410.011 300.17L409.506 305.275L406.291 305.866L404.849 304.597L402.397 306.544H392.75C392.75 306.544 390.299 302.319 395.634 300.877L400.955 299.435L410.011 300.17Z" fill="#4B4CAD"/>
<path d="M393.889 245.143L389.577 241.639L386.535 299.435L391.178 300.17L393.889 245.143Z" fill="url(#paint17_linear_281_3948)"/>
<path d="M395.821 222.431L396.888 223.282C397.276 223.618 397.751 223.838 398.258 223.917C398.609 223.909 398.953 223.825 399.268 223.671C406.051 221.031 412.697 218.051 419.182 214.745C421.907 213.303 424.878 211.53 425.455 208.53C425.604 207.49 425.579 206.433 425.383 205.401C424.356 197.823 422.374 190.405 419.485 183.324C418.663 181.319 417.653 177.455 415.505 176.114L415.245 175.984L414.942 175.84C413.588 175.821 412.262 176.229 411.152 177.005C410.042 177.781 409.204 178.887 408.756 180.166C408.756 180.166 419.023 201.161 418.576 204.334C418.129 207.506 396.586 217.716 396.586 217.716L395.821 222.431Z" fill="url(#paint18_linear_281_3948)"/>
<path d="M386.42 219.475C385.857 219.617 385.331 219.878 384.877 220.239C384.657 220.427 384.495 220.673 384.409 220.948C384.322 221.223 384.314 221.517 384.386 221.797C384.556 222.121 384.754 222.43 384.978 222.72C385.252 223.21 385.295 223.83 385.54 224.335C386.036 225.104 386.803 225.66 387.689 225.892C390.255 226.815 393.385 226.945 395.461 225.171C396.903 223.888 399.989 218.567 396.658 217.759C395.24 217.673 393.818 217.819 392.447 218.192C390.406 218.453 388.39 218.882 386.42 219.475Z" fill="#DA6E74"/>
<path d="M300.504 145.269L300.071 145.745L362.597 184.088L363.059 183.05L300.504 145.269Z" fill="#F7F7FE"/>
<path d="M346.591 174.455C346.491 173.988 346.568 173.5 346.807 173.085C346.974 172.902 347.18 172.759 347.41 172.667C347.639 172.574 347.887 172.535 348.134 172.552C348.372 172.532 348.611 172.556 348.841 172.624C349.36 172.811 349.662 173.331 349.994 173.778C350.099 173.916 350.22 174.042 350.355 174.152C350.538 174.274 350.737 174.371 350.946 174.441C351.241 174.532 351.522 174.663 351.782 174.83C352.182 175.134 352.516 175.517 352.763 175.955C353.006 176.304 353.213 176.676 353.383 177.065C353.571 177.572 353.655 178.112 353.628 178.652C353.645 178.834 353.599 179.017 353.498 179.171C353.364 179.317 353.177 179.405 352.979 179.416C352.186 179.479 351.394 179.276 350.73 178.839C350.052 178.435 349.446 177.902 348.812 177.397C348.248 177.1 347.756 176.683 347.372 176.175C346.988 175.666 346.722 175.079 346.591 174.455Z" fill="#DA6E74"/>
</g>
<defs>
<linearGradient id="paint0_linear_281_3948" x1="246.212" y1="202.748" x2="285.593" y2="571.674" gradientUnits="userSpaceOnUse">
<stop offset="0.01"/>
<stop offset="0.08" stop-opacity="0.69"/>
<stop offset="0.21" stop-opacity="0.32"/>
<stop offset="1" stop-opacity="0"/>
</linearGradient>
<linearGradient id="paint1_linear_281_3948" x1="403.344" y1="109.766" x2="227.061" y2="263.236" gradientUnits="userSpaceOnUse">
<stop stop-color="white"/>
<stop offset="1" stop-color="#CBCBCB"/>
</linearGradient>
<linearGradient id="paint2_linear_281_3948" x1="347.413" y1="127.777" x2="303.186" y2="274.589" gradientUnits="userSpaceOnUse">
<stop offset="0.01"/>
<stop offset="0.08" stop-opacity="0.69"/>
<stop offset="0.21" stop-opacity="0.32"/>
<stop offset="1" stop-opacity="0"/>
</linearGradient>
<linearGradient id="paint3_linear_281_3948" x1="310.293" y1="54.5515" x2="310.386" y2="66.1599" gradientUnits="userSpaceOnUse">
<stop stop-color="white"/>
<stop offset="1" stop-color="#CBCBCB"/>
</linearGradient>
<linearGradient id="paint4_linear_281_3948" x1="296.997" y1="58.192" x2="296.406" y2="66.6945" gradientUnits="userSpaceOnUse">
<stop stop-color="white"/>
<stop offset="1" stop-color="#CBCBCB"/>
</linearGradient>
<linearGradient id="paint5_linear_281_3948" x1="106.12" y1="190.563" x2="-38.8458" y2="314.057" gradientUnits="userSpaceOnUse">
<stop offset="0.01"/>
<stop offset="0.13" stop-opacity="0.69"/>
<stop offset="0.25" stop-opacity="0.32"/>
<stop offset="1" stop-opacity="0"/>
</linearGradient>
<linearGradient id="paint6_linear_281_3948" x1="-19.4651" y1="298.44" x2="198.842" y2="96.7161" gradientUnits="userSpaceOnUse">
<stop offset="0.01"/>
<stop offset="0.13" stop-opacity="0.69"/>
<stop offset="0.25" stop-opacity="0.32"/>
<stop offset="1" stop-opacity="0"/>
</linearGradient>
<linearGradient id="paint7_linear_281_3948" x1="156.36" y1="200.152" x2="185.2" y2="169.235" gradientUnits="userSpaceOnUse">
<stop offset="0.01"/>
<stop offset="0.08" stop-opacity="0.69"/>
<stop offset="0.21" stop-opacity="0.32"/>
<stop offset="1" stop-opacity="0"/>
</linearGradient>
<linearGradient id="paint8_linear_281_3948" x1="139.676" y1="142.428" x2="183.196" y2="508.253" gradientUnits="userSpaceOnUse">
<stop offset="0.01"/>
<stop offset="0.08" stop-opacity="0.69"/>
<stop offset="0.21" stop-opacity="0.32"/>
<stop offset="1" stop-opacity="0"/>
</linearGradient>
<linearGradient id="paint9_linear_281_3948" x1="213.968" y1="233.838" x2="138.147" y2="255.944" gradientUnits="userSpaceOnUse">
<stop offset="0.01"/>
<stop offset="0.08" stop-opacity="0.69"/>
<stop offset="0.21" stop-opacity="0.32"/>
<stop offset="1" stop-opacity="0"/>
</linearGradient>
<linearGradient id="paint10_linear_281_3948" x1="139.676" y1="176.301" x2="183.196" y2="542.112" gradientUnits="userSpaceOnUse">
<stop offset="0.01"/>
<stop offset="0.08" stop-opacity="0.69"/>
<stop offset="0.21" stop-opacity="0.32"/>
<stop offset="1" stop-opacity="0"/>
</linearGradient>
<linearGradient id="paint11_linear_281_3948" x1="122.862" y1="195.076" x2="215.122" y2="231.17" gradientUnits="userSpaceOnUse">
<stop offset="0.01"/>
<stop offset="0.08" stop-opacity="0.69"/>
<stop offset="0.21" stop-opacity="0.32"/>
<stop offset="1" stop-opacity="0"/>
</linearGradient>
<linearGradient id="paint12_linear_281_3948" x1="177.774" y1="227.824" x2="229.831" y2="155.507" gradientUnits="userSpaceOnUse">
<stop offset="0.01"/>
<stop offset="0.08" stop-opacity="0.69"/>
<stop offset="0.21" stop-opacity="0.32"/>
<stop offset="1" stop-opacity="0"/>
</linearGradient>
<linearGradient id="paint13_linear_281_3948" x1="427.43" y1="247.45" x2="311.723" y2="316.249" gradientUnits="userSpaceOnUse">
<stop offset="0.01"/>
<stop offset="0.08" stop-opacity="0.69"/>
<stop offset="0.21" stop-opacity="0.32"/>
<stop offset="1" stop-opacity="0"/>
</linearGradient>
<linearGradient id="paint14_linear_281_3948" x1="382.396" y1="241.437" x2="444.215" y2="294.431" gradientUnits="userSpaceOnUse">
<stop offset="0.01"/>
<stop offset="0.08" stop-opacity="0.69"/>
<stop offset="0.21" stop-opacity="0.32"/>
<stop offset="1" stop-opacity="0"/>
</linearGradient>
<linearGradient id="paint15_linear_281_3948" x1="363.52" y1="209.958" x2="378.964" y2="162.241" gradientUnits="userSpaceOnUse">
<stop offset="0.01"/>
<stop offset="0.08" stop-opacity="0.69"/>
<stop offset="0.21" stop-opacity="0.32"/>
<stop offset="1" stop-opacity="0"/>
</linearGradient>
<linearGradient id="paint16_linear_281_3948" x1="398.734" y1="207.261" x2="421.619" y2="256.088" gradientUnits="userSpaceOnUse">
<stop offset="0.01"/>
<stop offset="0.08" stop-opacity="0.69"/>
<stop offset="0.21" stop-opacity="0.32"/>
<stop offset="1" stop-opacity="0"/>
</linearGradient>
<linearGradient id="paint17_linear_281_3948" x1="404.315" y1="267.768" x2="361.674" y2="277.358" gradientUnits="userSpaceOnUse">
<stop offset="0.01"/>
<stop offset="0.08" stop-opacity="0.69"/>
<stop offset="0.21" stop-opacity="0.32"/>
<stop offset="1" stop-opacity="0"/>
</linearGradient>
<linearGradient id="paint18_linear_281_3948" x1="374.032" y1="182.588" x2="458.174" y2="227.478" gradientUnits="userSpaceOnUse">
<stop offset="0.01"/>
<stop offset="0.08" stop-opacity="0.69"/>
<stop offset="0.21" stop-opacity="0.32"/>
<stop offset="1" stop-opacity="0"/>
</linearGradient>
<clipPath id="clip0_281_3948">
<rect width="450" height="339.163" fill="white"/>
</clipPath>
</defs>
</svg>
